<?xml version="1.0" encoding="utf-8"?>
<!-- Generator: Adobe Illustrator 25.4.1, SVG Export Plug-In . SVG Version: 6.00 Build 0)  -->
<svg version="1.1" id="Ebene_1" xmlns="http://www.w3.org/2000/svg" xmlns:xlink="http://www.w3.org/1999/xlink" x="0px" y="0px"
	 viewBox="0 0 1190.6 841.9" style="enable-background:new 0 0 1190.6 841.9;" xml:space="preserve">
<style type="text/css">
	.st0{fill:#1D1D1B;}
</style>
<g>
	<path class="st0" d="M288,442h8.7v-83.9H288V442z M200.4,358.1V413c0,19.4,11.4,30.7,29.7,30.7c18,0,29.6-11.3,29.6-30.7v-54.9
		h-8.8v54.2c0,14-6.7,23.2-20.8,23.2c-14.4,0-20.9-9.1-20.9-23.2v-54.2H200.4z M137.3,399.2l-6.5,7.8h24.9l14.6-5.5l-4.8,5.5
		c-0.3,16.7-12.3,28.8-28.8,28.8c-18.7,0-33.1-12.3-33.1-35.7c0-23.5,16.3-35.7,33.8-35.7c12.7,0,24.2,5.8,29.4,16.9l7-5.2
		c-7.2-12.8-21.9-19.6-36.4-19.6c-22.4,0-42.7,16.2-42.7,43.7c0,27.4,18.4,43.7,39.9,43.7c16.5,0,25.8-8.6,30.8-17.2V442h8.7v-42.8
		H137.3z"/>
	<path class="st0" d="M362.7,358.1h-15l-32,83.9h9.5l10.2-24.8h39.7l9.9,24.8h9.6L362.7,358.1z M338.3,409.5l16.9-47.1l16.7,47.1
		H338.3z"/>
	<path class="st0" d="M483.6,435.7c-18.3,0-34.6-12.4-34.6-35.6c0-23.6,16.8-35.8,34.6-35.8c12.2,0,23.4,5.8,28.6,16.9l7-5.2
		c-7.2-12.8-21.3-19.6-35.9-19.6c-22.2,0-43.1,16.2-43.1,43.7c0,27.6,20.5,43.7,42.9,43.7c16,0,29.2-7.8,36.5-20l-7.1-5.1
		C507.2,429.7,496.2,435.7,483.6,435.7z"/>
	<path class="st0" d="M578.7,358.1h-15l-32,83.9h9.5l10.2-24.8H591l9.9,24.8h9.6L578.7,358.1z M554.3,409.6l16.9-47.1l16.7,47.1
		H554.3z"/>
	<path class="st0" d="M663.9,404.7h1.2c17.3,0,26.6-10,26.6-23.2c0-13.2-9.5-23.4-26.6-23.4h-35.7V442h8.8v-37.3h20.5l25.3,37.3
		h10.4l-20.7-31.2L663.9,404.7z M638.2,396.9v-30.8H665c11.5,0,17.9,6,17.9,15.4c0,9.2-6.5,15.4-18,15.4H638.2z"/>
	<path class="st0" d="M867.2,356.3c-22.4,0-43.7,16.2-43.7,43.7c0,27.4,21.1,43.7,43.7,43.7c22.8,0,43.7-16.3,43.7-43.7
		C910.9,372.5,889.7,356.3,867.2,356.3z M867.2,435.7c-17.9,0-34.8-12.4-34.8-35.7c0-23.5,17.3-35.6,34.8-35.6
		c17.7,0,34.8,12.1,34.8,35.6C902,423.3,885.2,435.7,867.2,435.7z"/>
	<polygon class="st0" points="989.4,358.1 989.4,429.6 944.9,358.1 934.4,358.1 934.4,442 943.1,442 943.1,370.7 987.6,442 
		998.1,442 998.1,358.1 	"/>
	<polygon class="st0" points="758,432.5 728.6,358.1 716.1,358.1 716.1,442 724.8,442 724.8,370.1 753,441.2 762.9,441.2 
		791.3,370.1 791.3,442 800,442 800,358.1 787.7,358.1 	"/>
	<path class="st0" d="M1056.6,362.4l16.7,47.1h-33.5L1056.6,362.4z M1049,358.1l-32,83.9h9.5l10.2-24.8h39.7l9.9,24.8h9.6
		l-31.8-83.9H1049z"/>
	<polygon class="st0" points="303.8,326.2 289.3,342.5 291.3,351.1 305.9,334.8 304.8,330.6 	"/>
</g>
</svg>
