<svg xmlns="http://www.w3.org/2000/svg" xmlns:xlink="http://www.w3.org/1999/xlink" width="400" zoomAndPan="magnify" viewBox="0 0 300 89.999999" height="120" preserveAspectRatio="xMidYMid meet" version="1.0"><path fill="#1d1d1b" d="M 62.253906 56.96875 L 64.738281 56.96875 L 64.738281 33.050781 L 62.253906 33.050781 Z M 37.261719 33.050781 L 37.261719 48.699219 C 37.261719 54.230469 40.515625 57.453125 45.734375 57.453125 C 50.871094 57.453125 54.179688 54.230469 54.179688 48.699219 L 54.179688 33.050781 L 51.671875 33.050781 L 51.671875 48.5 C 51.671875 52.492188 49.757812 55.113281 45.734375 55.113281 C 41.628906 55.113281 39.773438 52.519531 39.773438 48.5 L 39.773438 33.050781 Z M 19.261719 44.765625 L 17.40625 46.992188 L 24.511719 46.992188 L 28.675781 45.421875 L 27.304688 46.992188 C 27.21875 51.75 23.796875 55.199219 19.089844 55.199219 C 13.753906 55.199219 9.644531 51.695312 9.644531 45.023438 C 9.644531 38.324219 14.296875 34.847656 19.289062 34.847656 C 22.914062 34.847656 26.191406 36.5 27.675781 39.664062 L 29.675781 38.183594 C 27.621094 34.53125 23.425781 32.59375 19.289062 32.59375 C 12.898438 32.59375 7.105469 37.210938 7.105469 45.050781 C 7.105469 52.863281 12.355469 57.507812 18.492188 57.507812 C 23.199219 57.507812 25.851562 55.058594 27.277344 52.605469 L 27.277344 56.96875 L 29.757812 56.96875 L 29.757812 44.765625 Z M 19.261719 44.765625 " fill-opacity="1" fill-rule="nonzero"/><path fill="#1d1d1b" d="M 83.566406 33.050781 L 79.285156 33.050781 L 70.15625 56.96875 L 72.867188 56.96875 L 75.777344 49.898438 L 87.105469 49.898438 L 89.929688 56.96875 L 92.667969 56.96875 Z M 76.605469 47.703125 L 81.425781 34.277344 L 86.191406 47.703125 Z M 76.605469 47.703125 " fill-opacity="1" fill-rule="nonzero"/><path fill="#1d1d1b" d="M 118.058594 55.171875 C 112.835938 55.171875 108.1875 51.636719 108.1875 45.023438 C 108.1875 38.296875 112.980469 34.816406 118.058594 34.816406 C 121.539062 34.816406 124.734375 36.472656 126.21875 39.636719 L 128.214844 38.152344 C 126.160156 34.503906 122.136719 32.566406 117.972656 32.566406 C 111.640625 32.566406 105.675781 37.183594 105.675781 45.023438 C 105.675781 52.890625 111.523438 57.480469 117.914062 57.480469 C 122.480469 57.480469 126.246094 55.257812 128.328125 51.78125 L 126.304688 50.324219 C 124.792969 53.460938 121.652344 55.171875 118.058594 55.171875 Z M 118.058594 55.171875 " fill-opacity="1" fill-rule="nonzero"/><path fill="#1d1d1b" d="M 145.191406 33.050781 L 140.910156 33.050781 L 131.78125 56.96875 L 134.492188 56.96875 L 137.402344 49.898438 L 148.699219 49.898438 L 151.523438 56.96875 L 154.261719 56.96875 Z M 138.230469 47.730469 L 143.050781 34.304688 L 147.816406 47.730469 Z M 138.230469 47.730469 " fill-opacity="1" fill-rule="nonzero"/><path fill="#1d1d1b" d="M 169.496094 46.335938 L 169.839844 46.335938 C 174.773438 46.335938 177.429688 43.484375 177.429688 39.722656 C 177.429688 35.957031 174.71875 33.050781 169.839844 33.050781 L 159.65625 33.050781 L 159.65625 56.96875 L 162.164062 56.96875 L 162.164062 46.335938 L 168.011719 46.335938 L 175.230469 56.96875 L 178.199219 56.96875 L 172.292969 48.074219 Z M 162.164062 44.109375 L 162.164062 35.332031 L 169.8125 35.332031 C 173.089844 35.332031 174.917969 37.042969 174.917969 39.722656 C 174.917969 42.34375 173.0625 44.109375 169.78125 44.109375 Z M 162.164062 44.109375 " fill-opacity="1" fill-rule="nonzero"/><path fill="#1d1d1b" d="M 227.496094 32.539062 C 221.105469 32.539062 215.03125 37.15625 215.03125 44.996094 C 215.03125 52.804688 221.050781 57.453125 227.496094 57.453125 C 234.003906 57.453125 239.964844 52.804688 239.964844 44.996094 C 239.964844 37.15625 233.917969 32.539062 227.496094 32.539062 Z M 227.496094 55.171875 C 222.390625 55.171875 217.570312 51.636719 217.570312 44.996094 C 217.570312 38.296875 222.503906 34.847656 227.496094 34.847656 C 232.546875 34.847656 237.425781 38.296875 237.425781 44.996094 C 237.425781 51.636719 232.632812 55.171875 227.496094 55.171875 Z M 227.496094 55.171875 " fill-opacity="1" fill-rule="nonzero"/><path fill="#1d1d1b" d="M 262.359375 33.050781 L 262.359375 53.433594 L 249.664062 33.050781 L 246.667969 33.050781 L 246.667969 56.96875 L 249.152344 56.96875 L 249.152344 36.640625 L 261.847656 56.96875 L 264.84375 56.96875 L 264.84375 33.050781 Z M 262.359375 33.050781 " fill-opacity="1" fill-rule="nonzero"/><path fill="#1d1d1b" d="M 196.34375 54.257812 L 187.957031 33.050781 L 184.390625 33.050781 L 184.390625 56.96875 L 186.871094 56.96875 L 186.871094 36.472656 L 194.917969 56.738281 L 197.742188 56.738281 L 205.84375 36.472656 L 205.84375 56.96875 L 208.324219 56.96875 L 208.324219 33.050781 L 204.816406 33.050781 Z M 196.34375 54.257812 " fill-opacity="1" fill-rule="nonzero"/><path fill="#1d1d1b" d="M 281.53125 34.277344 L 286.296875 47.703125 L 276.738281 47.703125 Z M 279.363281 33.050781 L 270.234375 56.96875 L 272.945312 56.96875 L 275.855469 49.898438 L 287.179688 49.898438 L 290.003906 56.96875 L 292.746094 56.96875 L 283.671875 33.050781 Z M 279.363281 33.050781 " fill-opacity="1" fill-rule="nonzero"/><path fill="#1d1d1b" d="M 66.761719 23.957031 L 62.625 28.601562 L 63.195312 31.054688 L 67.363281 26.410156 L 67.046875 25.210938 Z M 66.761719 23.957031 " fill-opacity="1" fill-rule="nonzero"/></svg>